<?xml version="1.0" encoding="utf-8"?>
<!-- Generator: Adobe Illustrator 27.9.4, SVG Export Plug-In . SVG Version: 9.03 Build 54784)  -->
<svg version="1.1" id="Calque_1" xmlns="http://www.w3.org/2000/svg" xmlns:xlink="http://www.w3.org/1999/xlink" x="0px" y="0px"
	 viewBox="0 0 200.7 59" style="enable-background:new 0 0 200.7 59;" xml:space="preserve">
<style type="text/css">
	.st0{fill:none;stroke:#1E2044;stroke-width:1.2;stroke-miterlimit:10;}
	.st1{fill:#282525;}
	.st2{clip-path:url(#SVGID_00000038383457604070163680000009523067750481529985_);}
	.st3{fill:#FA736A;}
	.st4{fill:none;stroke:#FA736A;stroke-width:0.69;stroke-miterlimit:10;}
	.st5{fill:none;stroke:#FA736A;stroke-width:0.53;stroke-miterlimit:10;}
	.st6{fill:none;stroke:#FA736A;stroke-width:0.46;stroke-miterlimit:10;}
	.st7{fill:#181716;}
</style>
<path class="st0" d="M61.3,0v59"/>
<path class="st1" d="M21.5,17.7l-5.2-4.9c0,0-0.1-0.1,0-0.2c0-0.1,0.1-0.1,0.1-0.1l7.9-1.1l3.5-6.8c0,0,0-0.1,0.2-0.1
	s0.1,0.1,0.2,0.1l3.2,6.2l3.1-4.2l-2.1-4C31.5,1,29.8,0,27.9,0s-3.5,1-4.4,2.6l-2.4,4.7l-5.4,0.8c-1.8,0.3-3.4,1.5-3.9,3.2
	c-0.6,1.7-0.1,3.5,1.2,4.8l3.4,3.2L21.5,17.7L21.5,17.7z"/>
<path class="st1" d="M44.1,11.3c-0.2-0.6-0.6-1.2-1-1.7c-0.7-0.8-1.8-1.3-2.9-1.5l-4.8-0.7l-3,4.1l7.1,1c0,0,0.1,0,0.1,0.1
	c0,0.1,0,0.1,0,0.2l-0.6,0.6l-5,4.7l1.3,7.5c0,0.1,0,0.1,0,0.1c0,0-0.1,0.1-0.1,0.1c0,0,0,0-0.1,0l-1.1-0.6l5.4,2.8
	c0.6-0.9,0.8-2,0.6-3.1l-0.9-5.2l3.9-3.7C44.2,14.8,44.6,13,44.1,11.3"/>
<path class="st1" d="M33.9,25.3l-5.9-3l-7,3.5c0,0,0,0,0,0c0,0,0,0-0.1,0c0,0-0.1,0-0.1-0.1c0,0,0-0.1,0-0.1l1.2-6.8l-5,1.5L16,24.9
	c-0.2,1.1,0,2.2,0.6,3.1c0.1,0.2,0.3,0.5,0.5,0.7c0.9,1.1,2.3,1.7,3.7,1.7c0.8,0,1.6-0.2,2.3-0.5l4.8-2.4l4.8,2.4
	c0.7,0.4,1.5,0.5,2.3,0.5c1.4,0,2.8-0.6,3.7-1.7c0.2-0.2,0.4-0.4,0.5-0.7L33.9,25.3L33.9,25.3z"/>
<path class="st1" d="M0,40.3v-2.9c0-0.6,0.4-1.1,0.9-1.3c0.2-0.1,0.4-0.1,0.5-0.1c0.4,0,0.8,0.2,1.1,0.5l1,1.1l1.1-1.1
	C4.9,36.1,5.3,36,5.7,36c0.2,0,0.4,0,0.5,0.1c0.6,0.2,0.9,0.7,0.9,1.3v3.1h-1v-3.1C6.2,37.1,6,37,5.9,37c0,0-0.1,0-0.2,0
	c-0.1,0-0.2,0-0.3,0.1l-1.8,1.8l-1.8-1.9c-0.1-0.1-0.2-0.1-0.3-0.1c-0.1,0-0.1,0-0.2,0C1.2,37,1,37.1,1,37.4v3.2L0,40.3L0,40.3z"/>
<path class="st1" d="M11.7,38.4c0,0.8-0.6,1.4-1.4,1.4c-0.8,0-1.4-0.6-1.4-1.3c0-0.8,0.6-1.4,1.4-1.4c0.3,0,0.7,0.1,1,0.4
	C11.5,37.7,11.7,38,11.7,38.4z M10.3,36.2c-1.3,0-2.3,1-2.3,2.2c0,1.2,1,2.2,2.3,2.2c1.3,0,2.3-1,2.3-2.3S11.6,36.2,10.3,36.2z"/>
<path class="st1" d="M15.4,36.2c-0.4,0-0.9,0.2-1.1,0.5v-0.4h-0.9v4.3h0.9v-2.1c0-0.3,0-0.7,0.2-0.9c0.2-0.2,0.6-0.4,0.9-0.4
	c0.4,0,0.7,0.1,0.9,0.4c0.2,0.2,0.2,0.5,0.2,0.8v2.2h0.9v-2.2c0-0.5-0.1-1-0.4-1.4C16.5,36.5,16,36.2,15.4,36.2"/>
<path class="st1" d="M19.5,34.9h-0.9v1.4h-0.9v0.8h0.9v3.4h0.9v-3.4h0.9v-0.8h-0.9V34.9z"/>
<path class="st1" d="M23.2,39.8c-0.4,0-0.8-0.2-1-0.4c-0.3-0.3-0.4-0.6-0.4-1c0-0.7,0.6-1.3,1.4-1.3s1.4,0.6,1.4,1.4
	C24.6,39.2,24,39.8,23.2,39.8 M23.2,36.2c-0.5,0-1,0.2-1.4,0.5v-0.4h-0.9v5.3l0.9,0.3v-1.7c0.4,0.3,0.9,0.5,1.4,0.5
	c1.3,0,2.3-1,2.3-2.2C25.6,37.2,24.5,36.2,23.2,36.2z"/>
<path class="st1" d="M31.7,35.3v5.3h0.9v-5.7L31.7,35.3z"/>
<path class="st1" d="M33.6,35.3v5.3h0.9v-5.7L33.6,35.3z"/>
<path class="st1" d="M36.5,34.9h-0.9v0.9h0.9V34.9z"/>
<path class="st1" d="M36.5,36.3h-0.9v4.3h0.9V36.3z"/>
<path class="st1" d="M45.2,36.3c-0.1,0-0.2,0-0.3,0c-0.4,0-1,0.1-1.4,0.5v-0.4h-0.9v4.3h0.9v-2.2c0-0.8,0.4-1.3,1.3-1.3L45.2,36.3
	L45.2,36.3z"/>
<path class="st1" d="M39.5,37c0.6,0,1.1,0.4,1.3,0.9h-2.7C38.3,37.4,38.9,37,39.5,37z M40.6,39.3c-0.3,0.3-0.7,0.5-1.1,0.5
	c-0.6,0-1.2-0.4-1.3-1h3.7v-0.2c0-0.6-0.1-1.1-0.5-1.6c-0.4-0.5-1.1-0.8-1.8-0.8c-1.3,0-2.3,1-2.3,2.2c0,1.3,1,2.2,2.3,2.2
	c0.7,0,1.4-0.4,1.9-1L40.6,39.3L40.6,39.3z"/>
<path class="st1" d="M28.6,37c0.6,0,1.1,0.4,1.3,0.9h-2.7C27.5,37.4,28,37,28.6,37z M29.7,39.3c-0.3,0.3-0.7,0.5-1.1,0.5
	c-0.6,0-1.2-0.4-1.3-1H31v-0.2c0-0.6-0.1-1.1-0.5-1.6c-0.4-0.5-1.1-0.8-1.8-0.8c-1.3,0-2.3,1-2.3,2.2c0,1.3,1,2.2,2.3,2.2
	c0.7,0,1.4-0.4,1.9-1L29.7,39.3L29.7,39.3z"/>
<path class="st1" d="M7.6,52v-2.9c0-0.6,0.4-1.1,0.9-1.3c0.2-0.1,0.4-0.1,0.5-0.1c0.4,0,0.8,0.2,1.1,0.5l1,1.1l1.1-1.1
	c0.3-0.3,0.7-0.5,1.1-0.5c0.2,0,0.4,0,0.5,0.1c0.6,0.2,0.9,0.7,0.9,1.3v3.1h-1v-3.1c0-0.3-0.2-0.4-0.3-0.4c0,0-0.1,0-0.2,0
	c-0.1,0-0.2,0.1-0.3,0.1l-1.8,1.8l-1.8-1.9c-0.1-0.1-0.2-0.1-0.3-0.1c-0.1,0-0.1,0-0.2,0c-0.1,0-0.3,0.1-0.3,0.4v3.2L7.6,52z"/>
<path class="st1" d="M42.2,46.9v5.3h0.9v-5.7L42.2,46.9z"/>
<path class="st1" d="M26.5,47.9c-0.1,0-0.2,0-0.3,0c-0.4,0-1,0.1-1.4,0.5V48h-0.9v4.3h0.9v-2.2c0-0.8,0.4-1.3,1.3-1.3L26.5,47.9
	L26.5,47.9z"/>
<path class="st1" d="M22.2,46.6h-0.9V48h-0.9v0.8h0.9v3.4h0.9v-3.4h0.9V48h-0.9V46.6z"/>
<path class="st1" d="M28.6,48.7c0.3,0,0.7,0.1,1,0.4c0.3,0.3,0.4,0.6,0.4,1c0,0.8-0.6,1.4-1.4,1.4c-0.8,0-1.4-0.6-1.4-1.3
	C27.2,49.3,27.9,48.7,28.6,48.7z M28.6,47.9c-1.3,0-2.3,1-2.3,2.2c0,1.2,1,2.2,2.3,2.2c1.3,0,2.3-1,2.3-2.3S29.9,47.9,28.6,47.9z"/>
<path class="st1" d="M34,51.5c-0.4,0-0.8-0.2-1-0.4c-0.3-0.3-0.4-0.6-0.4-1c0-0.7,0.6-1.3,1.4-1.3s1.4,0.6,1.4,1.4
	C35.4,50.8,34.8,51.4,34,51.5 M34,47.8c-0.5,0-1,0.2-1.4,0.5v-0.4h-0.9v5.3l0.9,0.3v-1.7c0.4,0.3,0.9,0.5,1.4,0.5
	c1.3,0,2.3-1,2.3-2.2C36.3,48.8,35.3,47.8,34,47.8z"/>
<path class="st1" d="M39.2,48.7c0.3,0,0.7,0.1,1,0.4c0.3,0.3,0.4,0.6,0.4,1c0,0.8-0.6,1.4-1.4,1.4c-0.8,0-1.4-0.6-1.4-1.3
	C37.8,49.3,38.4,48.7,39.2,48.7z M39.2,47.9c-1.3,0-2.3,1-2.3,2.2c0,1.2,1,2.2,2.3,2.2s2.3-1,2.3-2.3S40.5,47.9,39.2,47.9z"/>
<path class="st1" d="M18.9,46.7l-0.4-0.6L16.9,47l0.4,0.6L18.9,46.7z"/>
<path class="st1" d="M17.9,48.8c0.6,0,1.1,0.4,1.3,0.9h-2.7C16.7,49.2,17.3,48.8,17.9,48.8z M18.9,51c-0.3,0.3-0.7,0.5-1.1,0.5
	c-0.6,0-1.2-0.4-1.3-1h3.7v-0.2c0-0.6-0.1-1.1-0.5-1.6c-0.4-0.5-1.1-0.8-1.8-0.8c-1.3,0-2.3,1-2.3,2.2c0,1.3,1,2.2,2.3,2.2
	c0.7,0,1.4-0.4,1.9-1L18.9,51L18.9,51z"/>
<path class="st1" d="M46.2,48.8c0.6,0,1.1,0.4,1.3,0.9h-2.7C45,49.2,45.6,48.8,46.2,48.8z M47.3,51c-0.3,0.3-0.7,0.5-1.1,0.5
	c-0.6,0-1.2-0.4-1.3-1h3.7v-0.2c0-0.6-0.1-1.1-0.5-1.6c-0.4-0.5-1.1-0.8-1.8-0.8c-1.3,0-2.3,1-2.3,2.2c0,1.3,1,2.2,2.3,2.2
	c0.7,0,1.4-0.4,1.9-1L47.3,51L47.3,51z"/>
<path class="st1" d="M22.6,45.5v-1.8c0-0.4,0.2-0.7,0.6-0.8c0.1,0,0.2-0.1,0.3-0.1c0.2,0,0.5,0.1,0.7,0.3l0.6,0.7l0.6-0.6
	c0.2-0.2,0.4-0.3,0.7-0.3c0.1,0,0.2,0,0.3,0.1c0.3,0.1,0.6,0.4,0.6,0.8v1.9h-0.6v-1.9c0-0.2-0.1-0.2-0.2-0.3c0,0-0.1,0-0.1,0
	c-0.1,0-0.1,0-0.2,0.1l-1.1,1.1l-1.1-1.1c-0.1-0.1-0.1-0.1-0.2-0.1c0,0-0.1,0-0.1,0c-0.1,0-0.2,0.1-0.2,0.3v2L22.6,45.5L22.6,45.5z"
	/>
<path class="st1" d="M48.3,43.1c-0.3,0-0.5,0.1-0.7,0.3v-0.2H47v2.6h0.6v-1.3c0-0.2,0-0.4,0.1-0.6c0.1-0.2,0.3-0.3,0.5-0.3
	c0.2,0,0.4,0.1,0.5,0.3c0.1,0.1,0.1,0.3,0.1,0.5v1.4h0.6v-1.4c0-0.3,0-0.6-0.3-0.9C49,43.2,48.6,43.1,48.3,43.1"/>
<path class="st1" d="M34.8,42.3h-0.6v0.5h0.6V42.3z"/>
<path class="st1" d="M34.8,43.1h-0.6v2.6h0.6V43.1z"/>
<path class="st1" d="M36.2,42.3h-0.5v0.8h-0.5v0.5h0.5v2.1h0.5v-2.1h0.6v-0.5h-0.6V42.3z"/>
<path class="st1" d="M32.1,43.6c0.2,0,0.5,0.1,0.6,0.3c0.2,0.2,0.2,0.3,0.2,0.6c0,0.5-0.4,0.8-0.9,0.8c-0.5,0-0.9-0.4-0.9-0.8
	C31.3,44,31.6,43.6,32.1,43.6 M32.1,45.8c0.3,0,0.6-0.1,0.9-0.3v0.2h0.6v-3.2L33,42.3v1.1c-0.2-0.2-0.5-0.3-0.9-0.3
	c-0.8,0-1.4,0.6-1.4,1.4C30.7,45.2,31.3,45.8,32.1,45.8z"/>
<path class="st1" d="M28.4,42.5l0.2,0.3l1-0.6L29.3,42L28.4,42.5z"/>
<path class="st1" d="M28.9,43.6c0.4,0,0.7,0.2,0.8,0.5h-1.6C28.2,43.8,28.6,43.6,28.9,43.6 M29.6,44.9c-0.2,0.2-0.4,0.3-0.7,0.3
	c-0.4,0-0.7-0.3-0.8-0.6h2.2v-0.1c0-0.4-0.1-0.7-0.3-1c-0.3-0.3-0.7-0.5-1.1-0.5c-0.8,0-1.4,0.6-1.4,1.4s0.6,1.4,1.4,1.4
	c0.4,0,0.9-0.2,1.1-0.6L29.6,44.9L29.6,44.9z"/>
<path class="st1" d="M38.3,43.6c0.4,0,0.7,0.2,0.8,0.5h-1.6C37.6,43.8,38,43.6,38.3,43.6 M39,44.9c-0.2,0.2-0.4,0.3-0.7,0.3
	c-0.4,0-0.7-0.3-0.8-0.6h2.2v-0.1c0-0.4-0.1-0.7-0.3-1c-0.3-0.3-0.7-0.5-1.1-0.5c-0.8,0-1.4,0.6-1.4,1.4s0.6,1.4,1.4,1.4
	c0.4,0,0.9-0.2,1.1-0.6L39,44.9L39,44.9z"/>
<path class="st1" d="M45,45.3c-0.5,0-0.9-0.4-0.9-0.8c0-0.5,0.4-0.8,0.9-0.8c0.5,0,0.9,0.4,0.9,0.9C45.9,44.9,45.5,45.3,45,45.3z
	 M45.9,43.4c-0.2-0.2-0.5-0.3-0.9-0.3c-0.4,0-0.8,0.1-1.1,0.4c-0.3,0.3-0.4,0.6-0.4,0.9c0,0.4,0.2,0.7,0.3,0.8
	c0.3,0.3,0.7,0.5,1.2,0.5c0.4,0,0.7-0.1,0.9-0.3v0.3h0.5v-2.6h-0.5L45.9,43.4L45.9,43.4z"/>
<path class="st1" d="M43.7,43.1c-0.1,0-0.1,0-0.2,0c-0.3,0-0.6,0.1-0.9,0.3v-0.2h-0.6v2.6h0.6v-1.3c0-0.5,0.3-0.8,0.8-0.8L43.7,43.1
	L43.7,43.1z"/>
<path class="st1" d="M41.8,43.1c-0.1,0-0.1,0-0.2,0c-0.3,0-0.6,0.1-0.9,0.3v-0.2h-0.6v2.6h0.6v-1.3c0-0.5,0.3-0.8,0.8-0.8L41.8,43.1
	L41.8,43.1z"/>
<path class="st1" d="M50.7,42.5l0.2,0.3l1-0.6L51.7,42L50.7,42.5z"/>
<path class="st1" d="M51.3,43.6c0.4,0,0.7,0.2,0.8,0.5h-1.6C50.6,43.8,50.9,43.6,51.3,43.6 M51.9,44.9c-0.2,0.2-0.4,0.3-0.7,0.3
	c-0.4,0-0.7-0.3-0.8-0.6h2.2v-0.1c0-0.4-0.1-0.7-0.3-1c-0.3-0.3-0.7-0.5-1.1-0.5c-0.8,0-1.4,0.6-1.4,1.4c0,0.8,0.6,1.4,1.4,1.4
	c0.4,0,0.9-0.2,1.1-0.6L51.9,44.9L51.9,44.9z"/>
<path class="st1" d="M54.5,43.6c0.4,0,0.7,0.2,0.8,0.5h-1.6C53.8,43.8,54.1,43.6,54.5,43.6 M55.1,44.9c-0.2,0.2-0.4,0.3-0.7,0.3
	c-0.4,0-0.7-0.3-0.8-0.6h2.2v-0.1c0-0.4-0.1-0.7-0.3-1c-0.3-0.3-0.7-0.5-1.1-0.5c-0.8,0-1.4,0.6-1.4,1.4c0,0.8,0.6,1.4,1.4,1.4
	c0.4,0,0.9-0.2,1.1-0.6L55.1,44.9L55.1,44.9z"/>
<g>
	<defs>
		<rect id="SVGID_1_" x="68.1" y="9" width="131.6" height="43"/>
	</defs>
	<clipPath id="SVGID_00000114049879334434577550000017745388290804161448_">
		<use xlink:href="#SVGID_1_"  style="overflow:visible;"/>
	</clipPath>
	<g style="clip-path:url(#SVGID_00000114049879334434577550000017745388290804161448_);">
		<path d="M78.1,11.1h0.6v10.5h2.2V9.1h-4.5l-1.9,9l-1.8-9h-4.5v12.5h2.1V11.1h0.6l2.3,10.5h2.7L78.1,11.1z"/>
		<path d="M86.8,21.8c1.3,0,2.3-0.4,3.2-1.3c0.9-0.9,1.3-2,1.3-3.3c0-1.3-0.4-2.4-1.3-3.3c-0.9-0.9-1.9-1.3-3.2-1.3
			s-2.3,0.4-3.2,1.3c-0.9,0.9-1.3,2-1.3,3.3c0,1.3,0.4,2.4,1.3,3.3C84.4,21.4,85.5,21.8,86.8,21.8z M86.8,14.5
			c0.7,0,1.3,0.3,1.7,0.8c0.5,0.5,0.7,1.2,0.7,2c0,0.8-0.2,1.4-0.7,2c-0.4,0.5-1,0.8-1.7,0.8c-1.4,0-2.5-1.1-2.5-2.7
			C84.3,15.7,85.4,14.5,86.8,14.5z"/>
		<path d="M95,14.8h3.5v6.8h2v-8.7H93v8.7h2V14.8z"/>
		<path d="M108.6,21.6v-1.9h-2.2v-5h2.3v-1.8h-2.3v-2.4h-2v2.4h-1.5v1.8h1.5v6.9H108.6z"/>
		<path d="M113,21c0.7,0.6,1.5,0.8,2.5,0.8c1.3,0,2.3-0.4,3.1-1.3c0.8-0.9,1.2-2,1.2-3.3c0-1.3-0.4-2.4-1.2-3.3
			c-0.8-0.9-1.8-1.3-3.1-1.3c-1,0-1.9,0.3-2.5,1v-0.8h-2v12.2h2L113,21L113,21z M115.4,14.5c0.7,0,1.3,0.3,1.7,0.8
			c0.4,0.5,0.6,1.2,0.6,2c0,0.8-0.2,1.4-0.6,2c-0.4,0.5-1,0.8-1.7,0.8c-1.5,0-2.3-1.2-2.3-2.8C113,15.7,113.8,14.5,115.4,14.5z"/>
		<path d="M128.9,20l-1.4-1.3c-0.6,0.8-1.3,1.2-2.3,1.2c-1.3,0-2.2-0.8-2.3-2.1h6l0-0.7c0-2.2-1.2-4.5-4-4.5c-1.2,0-2.2,0.4-3,1.3
			c-0.7,0.9-1.1,2-1.1,3.3c0,1.3,0.4,2.4,1.2,3.3c0.8,0.8,1.9,1.3,3.2,1.3C126.7,21.8,127.9,21.2,128.9,20z M124.9,14.5
			c1.2,0,1.8,0.8,1.8,1.7H123C123.2,15.3,123.9,14.5,124.9,14.5L124.9,14.5z"/>
		<path d="M132.8,9.1h-2v12.5h2V9.1z"/>
		<path d="M137.3,9.1h-2v12.5h2V9.1z"/>
		<path d="M141.8,12.9h-2v8.7h2V12.9z"/>
		<path d="M141.7,11.2c0.5-0.5,0.5-1.3,0-1.8c-0.5-0.5-1.3-0.5-1.8,0c-0.5,0.5-0.5,1.3,0,1.8C140.4,11.6,141.2,11.6,141.7,11.2z"/>
		<path d="M151.5,20l-1.4-1.3c-0.6,0.8-1.3,1.2-2.3,1.2c-1.3,0-2.2-0.8-2.3-2.1h6l0-0.7c0-2.2-1.2-4.5-4-4.5c-1.2,0-2.2,0.4-3,1.3
			c-0.7,0.9-1.1,2-1.1,3.3c0,1.3,0.4,2.4,1.2,3.3c0.8,0.8,1.9,1.3,3.2,1.3C149.4,21.8,150.6,21.2,151.5,20z M147.6,14.5
			c1.2,0,1.8,0.8,1.8,1.7h-3.7C145.9,15.3,146.5,14.5,147.6,14.5L147.6,14.5z"/>
		<path d="M155.3,14.8h2.8v-1.9h-4.9v8.7h2V14.8z"/>
		<path class="st3" d="M133.3,35.8c-0.3,0.7-0.6,1-1.5,1h-0.4c-1,0-1.5-0.5-1.5-1.5v-1.7c0-0.6,0.1-1.1,0.6-1.5l0.5-0.4l-0.3-0.5
			c-0.3-0.5-0.3-0.8-0.3-1.3v-0.3c0-1,0.5-1.6,1.6-1.6h0.5c1,0,1.6,0.5,1.6,1.5v1.2h-1.3v-1.1c0-0.3-0.1-0.5-0.5-0.5h-0.1
			c-0.3,0-0.5,0.1-0.5,0.5v0.3c0,0.3,0,0.5,0.2,0.8l1.3,2.4l0.5-1.6h1.3l-1,2.9l1.2,2.2h-1.4L133.3,35.8L133.3,35.8z M132.4,35.1
			l0.2-0.5l-1-1.9l0,0c-0.3,0.2-0.4,0.4-0.4,0.8v1.6c0,0.3,0.1,0.5,0.4,0.5h0.3C132.2,35.6,132.3,35.5,132.4,35.1z"/>
		<path class="st3" d="M138.4,36.7h-1.3V28h1.3V36.7z"/>
		<path class="st3" d="M141.8,36.7l-1.4-5.8v1.5l0,4.3h-1.2V28h1.6l1.3,5.4l0-1.4V28h1.2v8.7L141.8,36.7L141.8,36.7z"/>
		<path class="st3" d="M146.6,36.7l-1.4-5.8v1.5l0,4.3H144V28h1.6l1.3,5.4l0-1.4V28h1.2v8.7L146.6,36.7L146.6,36.7z"/>
		<path class="st3" d="M151.1,36.7h-0.7c-1.1,0-1.6-0.5-1.6-1.6v-5.6c0-1.1,0.5-1.6,1.6-1.6h0.7c1.1,0,1.6,0.5,1.6,1.6v5.6
			C152.7,36.2,152.2,36.7,151.1,36.7z M150.9,29.1h-0.3c-0.4,0-0.5,0.2-0.5,0.5v5.5c0,0.3,0.2,0.5,0.5,0.5h0.3
			c0.3,0,0.5-0.2,0.5-0.5v-5.5C151.4,29.2,151.3,29.1,150.9,29.1z"/>
		<path class="st3" d="M154.5,36.7l-1.3-8.7h1.3l0.8,6.5l0.8-6.5h1.3l-1.3,8.7H154.5z"/>
		<path class="st3" d="M161.6,36.7h-1.3l-0.2-1.4h-1.4l-0.2,1.4h-1.2l1.2-8.7h1.8L161.6,36.7z M158.9,34.1h1.1l-0.5-4.4L158.9,34.1z
			"/>
		<path class="st3" d="M162.6,36.7v-7.5h-1.2V28h3.7v1.2h-1.2v7.5H162.6L162.6,36.7z"/>
		<path class="st3" d="M167,36.7h-1.3V28h1.3V36.7z"/>
		<path class="st3" d="M170.1,36.7h-0.7c-1.1,0-1.6-0.5-1.6-1.6v-5.6c0-1.1,0.5-1.6,1.6-1.6h0.7c1.1,0,1.6,0.5,1.6,1.6v5.6
			C171.7,36.2,171.2,36.7,170.1,36.7z M169.9,29.1h-0.3c-0.4,0-0.5,0.2-0.5,0.5v5.5c0,0.3,0.2,0.5,0.5,0.5h0.3
			c0.3,0,0.5-0.2,0.5-0.5v-5.5C170.4,29.2,170.2,29.1,169.9,29.1z"/>
		<path class="st3" d="M175.1,36.7l-1.4-5.8l0,1.5v4.3h-1.2V28h1.6l1.2,5.4v-1.4l0-3.9h1.2v8.7L175.1,36.7L175.1,36.7z"/>
		<path class="st3" d="M159.7,45.3v2c0,1.1-0.5,1.6-1.6,1.6h-0.7c-1.1,0-1.6-0.5-1.6-1.6v-5.6c0-1.1,0.5-1.6,1.6-1.6h0.6
			c1.1,0,1.6,0.5,1.6,1.6v1.8h-1.3v-1.7c0-0.3-0.2-0.5-0.5-0.5h-0.2c-0.4,0-0.5,0.2-0.5,0.5v5.5c0,0.3,0.2,0.5,0.5,0.5h0.2
			c0.3,0,0.5-0.2,0.5-0.5v-2L159.7,45.3L159.7,45.3z"/>
		<path class="st3" d="M163.4,40.1v1.2h-1.6v2.5h1.6V45h-1.6v2.6h1.7v1.2h-3v-8.7L163.4,40.1L163.4,40.1z"/>
		<path class="st3" d="M166.7,48.8l-1.4-5.8l0,1.5v4.3h-1.2v-8.7h1.6l1.2,5.4V44l0-3.9h1.2v8.7L166.7,48.8L166.7,48.8z"/>
		<path class="st3" d="M169.9,48.8v-7.5h-1.2v-1.2h3.7v1.2h-1.2v7.5H169.9L169.9,48.8z"/>
		<path class="st3" d="M176.8,45.9v2.9h-1.3v-2.9c0-0.4-0.2-0.6-0.6-0.6h-0.6v3.5h-1.3v-8.7h2.2c1.1,0,1.6,0.5,1.6,1.6v1.6
			c0,0.8-0.3,1.1-0.8,1.3C176.5,44.9,176.8,45.2,176.8,45.9L176.8,45.9z M174.9,41.3h-0.6v2.9h0.6c0.4,0,0.5-0.2,0.5-0.5v-1.8
			C175.4,41.5,175.3,41.3,174.9,41.3L174.9,41.3z"/>
		<path class="st3" d="M180.5,40.1v1.2h-1.6v2.5h1.6V45h-1.6v2.6h1.7v1.2h-3v-8.7L180.5,40.1L180.5,40.1z"/>
		<path class="st4" d="M183,38.3h-30.4v12.4H183V38.3z"/>
		<path class="st5" d="M179,25.9h-51.5v12.4H179V25.9z"/>
		<path class="st3" d="M168.2,21v1.6c0,1.1-0.5,1.6-1.6,1.6h-2.2v-8.7h2.2c1.1,0,1.6,0.5,1.6,1.6v1.3c0,0.8-0.3,1.2-0.7,1.3
			C167.9,19.9,168.2,20.3,168.2,21L168.2,21z M166.3,16.7h-0.6v2.5h0.6c0.4,0,0.5-0.2,0.5-0.5v-1.5
			C166.8,16.9,166.7,16.7,166.3,16.7z M165.7,23h0.7c0.3,0,0.5-0.2,0.5-0.5v-1.6c0-0.4-0.2-0.5-0.5-0.5h-0.6V23z"/>
		<path class="st3" d="M172.8,22.7c0,1.1-0.5,1.6-1.6,1.6h-0.6c-1.1,0-1.6-0.5-1.6-1.6v-7.1h1.3v7.1c0,0.3,0.2,0.5,0.5,0.5h0.2
			c0.3,0,0.5-0.2,0.5-0.5v-7.1h1.3L172.8,22.7L172.8,22.7z"/>
		<path class="st3" d="M177.4,21.3v1.4c0,1.1-0.5,1.6-1.6,1.6h-0.6c-1.1,0-1.6-0.5-1.6-1.6v-1.8h1.3v1.8c0,0.3,0.2,0.5,0.5,0.5h0.2
			c0.4,0,0.5-0.2,0.5-0.5v-1.2c0-0.4-0.1-0.5-0.4-0.7l-1.3-1c-0.6-0.4-0.8-0.8-0.8-1.5v-1.2c0-1.1,0.5-1.6,1.6-1.6h0.6
			c1.1,0,1.6,0.5,1.6,1.6v1.6H176v-1.5c0-0.3-0.2-0.5-0.5-0.5h-0.2c-0.3,0-0.5,0.2-0.5,0.5v1c0,0.4,0.1,0.5,0.4,0.7l1.3,1
			C177.2,20.2,177.4,20.6,177.4,21.3L177.4,21.3z"/>
		<path class="st3" d="M179.4,24.2h-1.3v-8.7h1.3V24.2z"/>
		<path class="st3" d="M182.8,24.2l-1.4-5.8v1.5l0,4.3h-1.2v-8.7h1.6l1.3,5.4l0-1.4v-3.9h1.2v8.7L182.8,24.2L182.8,24.2z"/>
		<path class="st3" d="M188,15.5v1.2h-1.6v2.5h1.6v1.2h-1.6V23h1.7v1.2h-3v-8.7H188z"/>
		<path class="st3" d="M192.5,21.3v1.4c0,1.1-0.5,1.6-1.6,1.6h-0.6c-1.1,0-1.6-0.5-1.6-1.6v-1.8h1.3v1.8c0,0.3,0.2,0.5,0.5,0.5h0.2
			c0.4,0,0.5-0.2,0.5-0.5v-1.2c0-0.4-0.1-0.5-0.4-0.7l-1.3-1c-0.6-0.4-0.8-0.8-0.8-1.5v-1.2c0-1.1,0.5-1.6,1.6-1.6h0.6
			c1.1,0,1.6,0.5,1.6,1.6v1.6h-1.3v-1.5c0-0.3-0.2-0.5-0.5-0.5h-0.2c-0.3,0-0.5,0.2-0.5,0.5v1c0,0.4,0.1,0.5,0.4,0.7l1.3,1
			C192.3,20.2,192.5,20.6,192.5,21.3L192.5,21.3z"/>
		<path class="st3" d="M197,21.3v1.4c0,1.1-0.5,1.6-1.6,1.6h-0.6c-1.1,0-1.6-0.5-1.6-1.6v-1.8h1.3v1.8c0,0.3,0.2,0.5,0.5,0.5h0.2
			c0.4,0,0.5-0.2,0.5-0.5v-1.2c0-0.4-0.1-0.5-0.4-0.7l-1.3-1c-0.6-0.4-0.8-0.8-0.8-1.5v-1.2c0-1.1,0.5-1.6,1.6-1.6h0.6
			c1.1,0,1.6,0.5,1.6,1.6v1.6h-1.3v-1.5c0-0.3-0.2-0.5-0.5-0.5H195c-0.3,0-0.5,0.2-0.5,0.5v1c0,0.4,0.1,0.5,0.4,0.7l1.3,1
			C196.8,20.2,197,20.6,197,21.3L197,21.3z"/>
		<path class="st6" d="M199.5,13.4h-37.7v12.4h37.7V13.4z"/>
		<path class="st7" d="M99.5,24.8c1-1,2.6-1,3.6,0c1,1,1,2.6,0,3.6c-1,1-2.6,1-3.6,0C98.5,27.4,98.5,25.8,99.5,24.8z M99.2,49.2
			V31.9h4.1v17.4H99.2z"/>
		<path class="st7" d="M110.8,40.6c0,3.2,2,5.4,4.8,5.4c2,0,3.2-0.9,4.5-2.7l2.8,2.6c-1.8,2.5-4.2,3.8-7.4,3.8
			c-2.4,0-4.5-0.9-6.2-2.6c-1.7-1.7-2.6-3.9-2.6-6.5c0-2.6,0.9-4.7,2.6-6.5c1.7-1.7,3.8-2.6,6.2-2.6c2.9,0,5.3,1.2,7.1,3.5l-2.8,2.7
			c-1.3-1.7-2.6-2.5-4.2-2.5C112.8,35.1,110.8,37.4,110.8,40.6z"/>
		<path d="M74.9,39.7c0,0.5,0.1,1,0.2,1.5c0.8,2.4,3.6,3.6,7.5,3.2l0.2,0l-1.3-3.9h-0.1c-1.6,0-2.2-0.3-2.5-0.6
			c-0.1-0.1-0.2-0.2,0.1-0.4c1.1-1,5-1.2,8.2-0.3l0-0.1l0.1,0.1c1.5-0.8,2.6-1.8,3.3-2.9l0.1-0.1l-0.2-0.1
			C86,34.2,79.2,34,76.3,36.5C75.4,37.4,74.9,38.5,74.9,39.7L74.9,39.7z"/>
		<path d="M76.5,51.4l0.1,0c6.4,1.2,11.8,0.5,15.6-1.9c2.7-1.7,4.1-4,4.1-6.7c0-1.9-0.9-3.6-2.6-5l-0.1-0.1L93.5,38
			c-0.6,1-1.4,1.9-2.5,2.7l-0.1,0.1l0.1,0.1c0.8,0.6,1.2,1.3,1.2,2c0,1.2-0.8,2.4-2.3,3.3c-3.9,2.4-9.4,2-13.4,1.2l-0.2,0V51.4z"/>
		<path class="st3" d="M95.1,31.7c-0.4-2.5-1.8-4.6-4.1-5.9c-3.7-2.1-9.2-2-13.5-1.5l-0.2,0c-0.1,0-0.2,0-0.4,0.1
			c-0.1,0-0.2,0-0.3,0c-0.2,0-0.4,0.1-0.5,0.1c-0.1,0-0.1,0-0.2,0l-0.2,0c-2.2,0.4-4.7,1-7,1.9l1.3,3.8c1.9-0.8,4.4-1.4,7.2-1.9
			c5.3-0.8,9.5-0.5,11.9,0.8c1.2,0.7,1.9,1.6,2.1,3c0,0.3,0.1,0.6,0.1,0.9c0,4.2-4.7,6.4-7.4,7c-0.8,0.2-1.7,0.3-2.4,0.3h-0.2
			l1.3,3.9h0.1c0.7-0.1,1.4-0.2,2.1-0.3C90,42.8,95.3,39,95.3,33.2C95.3,32.7,95.2,32.2,95.1,31.7z"/>
		<path d="M93.8,37.9l-0.1-0.1L93.5,38c-0.6,1-1.4,1.9-2.5,2.7l-0.1,0.1l0.1,0.1c0.8,0.6,1.2,1.3,1.2,2c0,1.2-0.8,2.4-2.3,3.3
			c-7.4,3-13.6,1.4-17.5,0.1V31.9h-4.1v18c10.8,2.9,17.3,3,23.7-0.3c2.7-1.7,4.1-4,4.1-6.7C96.3,41.1,95.4,39.3,93.8,37.9L93.8,37.9
			z"/>
	</g>
</g>
</svg>
